<?xml version="1.0"?>
<svg fill="#fff" xmlns="http://www.w3.org/2000/svg" viewBox="0 0 24 24">
    <path d="M 13 3 L 14 5 L 20 5 L 20 4 L 13 3 z M 14 6 L 13 7 L 14 7 C 14 8.65 15.35 10 17 10 C 18.65 10 20 8.65 20 7 L 20 6 L 14 6 z M 15 11 C 14.433879 11 13.927251 11.243656 13.5625 11.625 L 13.53125 11.65625 C 13.424789 11.772629 13.32692 11.892365 13.25 12.03125 L 8 19 L 11 19 L 13 16.1875 L 13 18 L 19 11 L 15 11 z M 20.84375 11.1875 L 13.875 19 L 20 19 L 20 20 L 13 20 L 13 22 L 22 22 L 22 13 C 22 12.198 21.52975 11.5055 20.84375 11.1875 z M 3.5 12 C 2.675 12 2 12.675 2 13.5 L 2 18.5 C 2 19.325 2.675 20 3.5 20 L 4 20 L 4 12 L 3.5 12 z M 4 20 L 4 20.5 C 4 21.325 4.675 22 5.5 22 L 10.5 22 C 11.325 22 12 21.325 12 20.5 L 12 20 L 4 20 z"/>
</svg>
