<svg xmlns="http://www.w3.org/2000/svg" width="64" height="32" viewBox="0 0 64 32">
    <g fill="none" fill-rule="evenodd">
        <g fill="#FFF" fill-rule="nonzero">
            <path d="M30.545 17.772A5.779 5.779 0 0 0 24.772 12 5.779 5.779 0 0 0 19 17.772c0 .933.223 1.815.617 2.595l5.155 10.631 5.156-10.633c.394-.78.617-1.66.617-2.593zm-5.773 3.195a3.198 3.198 0 0 1-3.194-3.195 3.198 3.198 0 0 1 3.194-3.194 3.198 3.198 0 0 1 3.195 3.194 3.198 3.198 0 0 1-3.195 3.195zM42.363 12.5a3.51 3.51 0 0 0-3.506 3.506c0 .566.135 1.102.375 1.576l3.13 6.456 3.132-6.457c.24-.474.375-1.01.375-1.575a3.51 3.51 0 0 0-3.506-3.506zm0 5.446c-1.07 0-1.94-.87-1.94-1.94 0-1.07.87-1.94 1.94-1.94 1.07 0 1.94.87 1.94 1.94 0 1.07-.87 1.94-1.94 1.94zM33.951 22.476a.886.886 0 0 0-.813.501l-.038.079-2.433 5.043-2.887-.063a1 1 0 0 0-.922.563l-1.191 2.457 5.869-.129.318-.006a1 1 0 0 0 .933-.704l.056-.18 1.783-5.743 6.826-.171-.715-1.475-6.786-.172z"/>
        </g>
    </g>
</svg>
